<svg xmlns="http://www.w3.org/2000/svg" width="1920" height="287.7" viewBox="0 0 1920 287.7">
  <path id="wave_3" d="M0,297.827l26.667,6.638c26.667,7.139,80,19.663,133.333,6.763,53.333-13.4,106.667-53.478,160-93.554s106.667-80.154,160-86.791c53.333-7.139,106.667,20.414,160,53.352,53.333,33.439,106.667,73.516,160,66.878,53.333-7.139,106.667-59.74,160-93.554s106.667-46.339,160-40.077,106.667,33.815,160,53.478c53.333,20.414,106.667,32.938,160,60.115,53.333,26.676,106.667,66.753,160,33.314,53.333-32.938,106.667-140.645,160-166.945s106.667,26.3,133.333,53.478L1920,177.6V377.981H0Z" transform="translate(0 -90.281)" fill="#2e394b"/>
</svg>
